<?xml version="1.0" encoding="utf-8"?>
<!-- Generator: Adobe Illustrator 22.0.1, SVG Export Plug-In . SVG Version: 6.00 Build 0)  -->
<svg version="1.1" id="Layer_1" xmlns="http://www.w3.org/2000/svg" xmlns:xlink="http://www.w3.org/1999/xlink" x="0px" y="0px"
	 viewBox="0 0 841.9 595.3" style="enable-background:new 0 0 841.9 595.3;" xml:space="preserve">
<style type="text/css">
	.st0{fill:#F0F0E1;stroke:#000000;stroke-miterlimit:10;}
	.st1{opacity:0.75;fill:#4393C3;stroke:#000000;stroke-miterlimit:10;}
	.st2{opacity:0.75;fill:#DF8326;stroke:#000000;stroke-miterlimit:10;}
	.st3{font-family:'MyriadPro-Regular';}
	.st4{font-size:28.7719px;}
	.st5{fill:#42413C;}
	.st6{fill:#8B5E3C;}
	.st7{font-size:16.0746px;}
	.st8{font-size:13.6516px;}
	.st9{font-size:13.6972px;}
	.st10{font-size:14.9193px;}
	.st11{font-size:12.3777px;}
</style>
<polygon class="st0" points="515,269.8 491.5,269.8 474.8,286.4 474.8,309.9 491.5,326.5 515,326.5 531.6,309.9 531.6,286.4 "/>
<polygon class="st0" points="269.2,187.5 245.7,187.5 229.1,204.1 229.1,227.6 245.7,244.2 269.2,244.2 285.8,227.6 285.8,204.1 "/>
<rect x="285.8" y="204.1" class="st0" width="107" height="23.5"/>
<rect x="350.9" y="327.1" transform="matrix(0.7071 0.7071 -0.7071 0.7071 351.169 -169.6723)" class="st0" width="59.1" height="23.9"/>
<rect x="432.6" y="327.4" transform="matrix(-0.7071 0.7071 -0.7071 -0.7071 1028.8386 252.0907)" class="st0" width="59.2" height="23.5"/>
<rect x="450.4" y="227.3" transform="matrix(0.7071 -0.7071 0.7071 0.7071 -46.3483 402.1051)" class="st0" width="23.7" height="59.4"/>
<polygon class="st1" points="433,351.8 409.5,351.8 392.8,368.4 392.8,391.9 409.5,408.5 433,408.5 449.6,391.9 449.6,368.4 "/>
<polygon class="st2" points="433,187.5 409.5,187.5 392.8,204.1 392.8,227.6 409.5,244.2 433,244.2 449.6,227.6 449.6,204.1 "/>
<polygon class="st0" points="351.2,269.8 327.7,269.8 311.1,286.4 311.1,309.9 327.7,326.5 351.2,326.5 367.8,309.9 367.8,286.4 "/>
<rect x="268.8" y="245.3" transform="matrix(0.7071 0.7071 -0.7071 0.7071 269.1431 -135.7693)" class="st0" width="59.4" height="23.3"/>
<rect x="350.7" y="245.3" transform="matrix(-0.7071 0.7071 -0.7071 -0.7071 831.024 170.1532)" class="st0" width="59.1" height="23.9"/>
<polygon class="st0" points="596.8,187.9 573.3,187.9 556.7,204.5 556.7,228 573.3,244.6 596.8,244.6 613.5,228 613.5,204.5 "/>
<rect x="514.6" y="245.4" transform="matrix(-0.7071 0.7071 -0.7071 -0.7071 1110.7761 54.2761)" class="st0" width="59.1" height="23.5"/>
<rect x="449.6" y="204.5" transform="matrix(-1 -1.699785e-14 1.699785e-14 -1 1006.2943 432.4996)" class="st0" width="107.1" height="23.5"/>
<polygon class="st0" points="269.3,408.6 245.8,408.6 229.2,391.9 229.2,368.4 245.8,351.8 269.3,351.8 286,368.4 286,391.9 "/>
<rect x="286" y="368.4" class="st0" width="107" height="23.5"/>
<rect x="268.9" y="327.4" transform="matrix(0.7071 -0.7071 0.7071 0.7071 -152.2984 310.4397)" class="st0" width="59.4" height="23.3"/>
<polygon class="st0" points="573.3,408.6 596.8,408.6 613.5,391.9 613.5,368.4 596.8,351.8 573.3,351.8 556.7,368.4 556.7,391.9 "/>
<rect x="449.7" y="368.4" transform="matrix(-1 -4.490731e-11 4.490731e-11 -1 1006.4193 760.3706)" class="st0" width="107" height="23.5"/>
<rect x="514.4" y="327.4" transform="matrix(-0.7071 -0.7071 0.7071 -0.7071 689.0587 963.538)" class="st0" width="59.4" height="23.3"/>
<rect x="367.7" y="286.4" transform="matrix(4.490725e-11 -1 1 4.490725e-11 123.0243 719.3949)" class="st0" width="107" height="23.5"/>
<rect x="203.8" y="286.4" transform="matrix(4.490725e-11 -1 1 4.490725e-11 -40.9111 555.4594)" class="st0" width="107" height="23.5"/>
<rect x="531.1" y="285.9" transform="matrix(4.490725e-11 -1 1 4.490725e-11 286.9598 882.2398)" class="st0" width="107" height="23.5"/>
<rect x="203.8" y="286.4" transform="matrix(4.490725e-11 -1 1 4.490725e-11 -40.9111 555.4594)" class="st0" width="107" height="23.5"/>
<text transform="matrix(1.2494 0 0 1 412.1906 213.1995)" class="st3 st4">S</text>
<text transform="matrix(1.2494 0 0 1 412.1907 238.7944)" class="st5 st3 st4">0</text>
<text transform="matrix(1.2494 0 0 1 239.8488 216.2498)" class="st3 st4">P1</text>
<text transform="matrix(1.2494 0 0 1 247.7603 238.7942)" class="st5 st3 st4">2</text>
<text transform="matrix(1.2494 0 0 1 568.3298 217.6758)" class="st3 st4">P4</text>
<text transform="matrix(1.2494 0 0 1 575.6084 240.4226)" class="st5 st3 st4">5</text>
<text transform="matrix(1.2494 0 0 1 412.1905 379.1381)" class="st3 st4">T</text>
<text transform="matrix(1.2494 0 0 1 412.1906 404.7331)" class="st5 st3 st4">1</text>
<text transform="matrix(1.2494 0 0 1 239.8488 379.1385)" class="st3 st4">P3</text>
<text transform="matrix(1.2494 0 0 1 247.7603 404.7331)" class="st5 st3 st4">4</text>
<text transform="matrix(1.2494 0 0 1 565.1653 379.1378)" class="st3 st4">P6</text>
<text transform="matrix(1.2494 0 0 1 575.6085 403.3387)" class="st5 st3 st4">7</text>
<text transform="matrix(1.2494 0 0 1 323.2232 294.6622)" class="st3 st4">P2</text>
<text transform="matrix(1.2494 0 0 1 330.1854 320.2572)" class="st5 st3 st4">3</text>
<text transform="matrix(1.2494 0 0 1 487.0007 297.64)" class="st3 st4">P5</text>
<text transform="matrix(1.2494 0 0 1 494.9122 320.257)" class="st5 st3 st4">6</text>
<text transform="matrix(1.2494 0 0 1 279.6379 254.6305)" class="st6 st3 st7">B4</text>
<text transform="matrix(1.2494 0 0 1 295.1443 271.1942)" class="st6 st3 st7">11</text>
<text transform="matrix(1.1827 0 0 1 363.3218 339.7305)" class="st6 st3 st8">B10</text>
<text transform="matrix(1.2494 0 0 1 380.3973 357.0999)" class="st6 st3 st7">17</text>
<text transform="matrix(1.2494 0 0 1 444.4363 256.0672)" class="st6 st3 st7">B6</text>
<text transform="matrix(1.2494 0 0 1 462.2101 273.433)" class="st6 st3 st7">13</text>
<text transform="matrix(1.0609 0 0 1 524.9776 335.395)" class="st6 st3 st9">B12</text>
<text transform="matrix(1.2494 0 0 1 540.1677 354.2514)" class="st6 st3 st7">19</text>
<text transform="matrix(1.2494 0 0 1 378.1949 256.0674)" class="st6 st3 st7">B5</text>
<text transform="matrix(1.2494 0 0 1 362.0555 268.6873)" class="st6 st3 st7">12</text>
<text transform="matrix(1.2494 0 0 1 290.4273 339.73)" class="st6 st3 st7">B9</text>
<text transform="matrix(1.2494 0 0 1 279.9841 359.0531)" class="st6 st3 st7">16</text>
<text transform="matrix(1.2494 0 0 1 540.1681 258.306)" class="st6 st3 st7">B7</text>
<text transform="matrix(1.2494 0 0 1 524.9776 273.4328)" class="st6 st3 st7">14</text>
<text transform="matrix(1.056 0 0 1 459.0713 335.3955)" class="st6 st3 st10">B11</text>
<text transform="matrix(1.2494 0 0 1 446.7289 351.8179)" class="st6 st3 st7">18</text>
<text transform="matrix(1.2494 0 0 1 318.7928 223.6674)" class="st6 st3 st7">B1</text>
<text transform="matrix(1.2494 0 0 1 353.9194 223.6674)" class="st6 st3 st7">8</text>
<text transform="matrix(1.2494 0 0 1 483.7735 222.3949)" class="st6 st3 st7">B2</text>
<text transform="matrix(1.2494 0 0 1 521.1153 222.395)" class="st6 st3 st7">9</text>
<text transform="matrix(1.2494 0 0 1 311.0924 386.8266)" class="st6 st3 st7">B13</text>
<text transform="matrix(1.2494 0 0 1 352.6359 386.8263)" class="st6 st3 st7">20</text>
<text transform="matrix(1.2494 0 0 1 480.1472 385.2244)" class="st6 st3 st7">B14</text>
<text transform="matrix(1.2494 0 0 1 522.6976 385.2245)" class="st6 st3 st7">21</text>
<text transform="matrix(1.2494 0 0 1 245.5241 294.6624)" class="st6 st3 st7">B3</text>
<text transform="matrix(1.2494 0 0 1 245.5241 313.9662)" class="st6 st3 st7">10</text>
<text transform="matrix(1.119 0 0 1 409.4594 288.1018)" class="st6 st3 st11">B15</text>
<text transform="matrix(1.2494 0 0 1 410.8444 307.6519)" class="st6 st3 st7">22</text>
<text transform="matrix(1.2494 0 0 1 571.9917 291.7257)" class="st6 st3 st7">B8</text>
<text transform="matrix(1.2494 0 0 1 573.8905 313.9662)" class="st6 st3 st7">15</text>
</svg>
